Coordinates
version=1
nRows=10
nColumns=40
inDegrees=yes

Units are S.I. units (second, meters, Newtons, ...)
If the header above contains a line with 'inDegrees', this indicates whether rotational values are in degrees (yes) or radians (no).

endheader
time	pelvis_tilt	pelvis_list	pelvis_rotation	pelvis_tx	pelvis_ty	pelvis_tz	hip_flexion_r	hip_adduction_r	hip_rotation_r	knee_angle_r	knee_angle_r_beta	ankle_angle_r	subtalar_angle_r	mtp_angle_r	hip_flexion_l	hip_adduction_l	hip_rotation_l	knee_angle_l	knee_angle_l_beta	ankle_angle_l	subtalar_angle_l	mtp_angle_l	lumbar_extension	lumbar_bending	lumbar_rotation	arm_flex_r	arm_add_r	arm_rot_r	elbow_flex_r	pro_sup_r	wrist_flex_r	wrist_dev_r	arm_flex_l	arm_add_l	arm_rot_l	elbow_flex_l	pro_sup_l	wrist_flex_l	wrist_dev_l
      8.53000000	     28.55659087	      0.46723468	   -174.78405121	      0.38817661	      0.80648432	     -0.55630567	     82.06958323	    -19.12449954	     -3.97607438	     66.44447663	      1.15967489	     12.58035462	      0.00000000	      0.00000000	     81.65371345	     -2.89609275	     -0.63736374	     66.65224190	      1.16330107	     10.89637555	      0.00000000	      0.00000000	    -49.88717550	      6.81483936	     -0.38042956	     61.27841845	    -16.40848032	     29.01271162	     21.48609555	     89.07691433	      0.00000000	      0.00000000	     66.15297617	    -12.38034316	     55.97119269	     21.60117431	     86.17015314	      0.00000000	      0.00000000
      8.53500000	     28.47026496	      0.59835723	   -174.79571161	      0.38790796	      0.80754303	     -0.55645791	     81.77140829	    -19.04171368	     -4.16950856	     66.23980425	      1.15610268	     12.57090587	      0.00000000	      0.00000000	     81.47257669	     -2.98890350	     -0.56941021	     66.50108061	      1.16066281	     10.87457446	      0.00000000	      0.00000000	    -49.91080155	      6.91351842	     -0.28759374	     61.25586824	    -16.36030148	     28.90801167	     21.42994941	     89.07990030	      0.00000000	      0.00000000	     66.06808565	    -12.38595673	     55.82337499	     21.61951583	     86.22426673	      0.00000000	      0.00000000
      8.54000000	     28.45685147	      0.54335406	   -174.73645964	      0.38774396	      0.80837884	     -0.55640680	     81.67487207	    -19.14289946	     -4.21744739	     66.12398313	      1.15408122	     12.50660170	      0.00000000	      0.00000000	     81.31998852	     -2.86766978	     -0.55092791	     66.30528935	      1.15724561	     10.77918496	      0.00000000	      0.00000000	    -49.83085151	      6.91296568	     -0.38965169	     61.14434142	    -16.36489213	     28.99933161	     21.48907893	     89.07655827	      0.00000000	      0.00000000	     66.00623080	    -12.41302780	     55.95313419	     21.61228752	     86.24807089	      0.00000000	      0.00000000
      8.54500000	     28.47788626	      0.42743109	   -174.78462498	      0.38766691	      0.80917285	     -0.55654043	     81.61737329	    -19.06739165	     -4.04407541	     65.94308231	      1.15092391	     12.43363513	      0.00000000	      0.00000000	     81.18841099	     -2.84830336	     -0.62662607	     66.11323992	      1.15389372	     10.78429982	      0.00000000	      0.00000000	    -49.71761395	      6.78517610	     -0.46437307	     61.08113055	    -16.27198844	     28.85358429	     21.36842001	     89.07875561	      0.00000000	      0.00000000	     65.97544102	    -12.43745716	     56.15361334	     21.59324241	     86.21598408	      0.00000000	      0.00000000
      8.55000000	     28.47366998	      0.46783943	   -174.96166388	      0.38749050	      0.81014487	     -0.55696828	     81.43219561	    -18.80642947	     -4.07161286	     65.68081327	      1.14634645	     12.45049677	      0.00000000	      0.00000000	     81.05236099	     -3.04272961	     -0.62317135	     65.94475776	      1.15095315	     10.77485395	      0.00000000	      0.00000000	    -49.65813740	      6.68555955	     -0.32531627	     61.02511391	    -16.30023907	     28.97168035	     21.38305220	     89.07443503	      0.00000000	      0.00000000	     65.93841168	    -12.42609224	     56.25715407	     21.56782348	     86.30093774	      0.00000000	      0.00000000
      8.55500000	     28.49194463	      0.34497410	   -175.04629637	      0.38739349	      0.81099960	     -0.55719726	     81.36483403	    -18.71169168	     -3.93984670	     65.49149227	      1.14304217	     12.41899032	      0.00000000	      0.00000000	     80.89035531	     -3.03601493	     -0.68112484	     65.71606641	      1.14696173	     10.76644576	      0.00000000	      0.00000000	    -49.54877948	      6.52850808	     -0.39601387	     60.98219839	    -16.25255943	     29.12839470	     21.30066382	     89.07306951	      0.00000000	      0.00000000	     65.87396270	    -12.53858753	     56.50459058	     21.68998574	     86.37792250	      0.00000000	      0.00000000
      8.56000000	     28.52663435	      0.26593485	   -175.16700946	      0.38731731	      0.81187980	     -0.55746213	     81.28434231	    -18.55539546	     -3.83893817	     65.26269377	      1.13904888	     12.36723180	      0.00000000	      0.00000000	     80.76104603	     -3.08304450	     -0.71428119	     65.50536625	      1.14328432	     10.72520554	      0.00000000	      0.00000000	    -49.42951613	      6.37795455	     -0.38659089	     60.88537203	    -16.21623604	     29.04621124	     21.28017736	     89.07337052	      0.00000000	      0.00000000	     65.92393070	    -12.59920827	     57.25340495	     21.67540908	     86.24530356	      0.00000000	      0.00000000
      8.56500000	     28.54377517	      0.13380083	   -175.31485422	      0.38709562	      0.81274071	     -0.55765474	     81.20848265	    -18.42552175	     -3.72972254	     65.05894559	      1.13549281	     12.35086263	      0.00000000	      0.00000000	     80.56960275	     -2.98061781	     -0.58998634	     65.25323852	      1.13888386	     10.94883706	      0.00000000	      0.00000000	    -49.31938927	      6.16671900	     -0.38409502	     60.74871994	    -16.17442448	     28.73704947	     21.26107685	     89.07896625	      0.00000000	      0.00000000	     66.17135715	    -12.64661827	     59.04600597	     21.50593758	     85.91377667	      0.00000000	      0.00000000
      8.57000000	     28.54034210	     -0.02287836	   -175.36402418	      0.38698958	      0.81380654	     -0.55760779	     81.10903038	    -18.41461260	     -3.60348768	     64.84251773	      1.13171543	     12.21859748	      0.00000000	      0.00000000	     80.35820722	     -2.90596935	     -0.68175731	     64.99839286	      1.13443596	     10.90898650	      0.00000000	      0.00000000	    -49.24184152	      6.03624266	     -0.46471966	     60.66868867	    -16.35375232	     29.36964865	     21.46346492	     89.07862626	      0.00000000	      0.00000000	     65.97085532	    -12.43465500	     58.13645321	     21.29263863	     85.63379940	      0.00000000	      0.00000000
      8.57500000	     28.66767845	      0.00520778	   -175.49011028	      0.38710070	      0.81445037	     -0.55802100	     81.09951136	    -18.15410957	     -3.50681612	     64.58851228	      1.12728220	     12.21852309	      0.00000000	      0.00000000	     80.41955786	     -3.13245627	     -0.79504924	     64.90042521	      1.13272611	     10.72343099	      0.00000000	      0.00000000	    -49.00331352	      5.94972416	     -0.40612308	     60.59643991	    -16.24042477	     29.24188965	     21.31839428	     89.07722136	      0.00000000	      0.00000000	     65.90707657	    -12.57399552	     58.50780053	     21.43733396	     85.89908716	      0.00000000	      0.00000000
